<svg xmlns="http://www.w3.org/2000/svg" xmlns:xlink="http://www.w3.org/1999/xlink" version="1.1" id="OBJECTS" x="0px" y="0px" style="enable-background:new 0 0 3000 1500;" xml:space="preserve" viewBox="718.08 537.48 1649.46 426.28">
<g>
	<path d="M718.09,869.22h18.81c18.05,0,27.63-10.28,27.63-29.37V630.15h76.46v216.01c0,56.89-34.83,90.5-94.17,90.5h-28.74V869.22z    M765.11,537.48h75.29v64.89h-75.29V537.48z"/>
	<path d="M1099.75,739.06c0,6.69-0.58,13.38-1.58,20.24H933.33c5,25.46,21.18,38.63,45.32,38.63c17.86,0,32.79-7.82,40.13-20.82   h76.09c-15.62,50.66-60.53,82.32-116.23,82.32c-69.27,0-120.58-50.63-120.58-118.45c0-68.06,50.9-118.1,120.58-118.1   C1050.21,622.88,1099.75,673.93,1099.75,739.06L1099.75,739.06z M934.68,716.96h89.74c-6.71-22.19-22.7-34.16-45.78-34.16   C956.36,682.8,940.86,694.9,934.68,716.96z"/>
	<path d="M1345.19,739.06c0,6.69-0.58,13.38-1.58,20.24h-164.84c5,25.46,21.18,38.63,45.32,38.63c17.86,0,32.79-7.82,40.14-20.82   h76.09c-15.62,50.66-60.53,82.32-116.23,82.32c-69.27,0-120.58-50.63-120.58-118.45c0-68.06,50.9-118.1,120.58-118.1   C1295.65,622.88,1345.19,673.93,1345.19,739.06L1345.19,739.06z M1180.12,716.96h89.74c-6.71-22.19-22.7-34.16-45.78-34.16   C1201.8,682.8,1186.31,694.9,1180.12,716.96z"/>
	<g>
		<path d="M1833.45,634.68l27.57-84.7h-78.08l-60.75,197.8l-55.34-116.92h-20.64l-52.48,115.85l-33.62-116.56h-43.98h-36.1h-19.67    v-64.9h-15.71l-99.46,105.92v17.88h40.63v83.77c0,49.33,29.84,79.34,78.93,79.34h52.61v-66.97l-29.35,0    c-16.13,0-25.73-9.59-25.73-25.49v-70.65h36.97l53.25,163.11h61.63l42.96-99.44l43.92,99.44h61.63l17.48-53.7    c-9.02-16.69-14.02-36.08-14.02-57.29C1766.12,692.32,1792.36,653.27,1833.45,634.68z"/>
		<path d="M1890.58,790.74L1890.58,790.74c-27.88,0-47.88-20.23-47.88-49.58s20-49.58,47.88-49.58c27.88,0,47.88,20.41,47.88,49.58    C1938.46,770.51,1918.46,790.74,1890.58,790.74z"/>
		<path d="M2110.92,629.1c-26.42,0-45.49,7.58-61.15,25.69l-11.93-24.64h-51.23v33.08c17.98,20.33,28.44,47.18,28.44,77.92    c0,30.63-10.46,57.47-28.44,77.82v33.18h76.46V739.26c0-28.32,11.34-40.19,38.41-40.19h29.69V629.1H2110.92z"/>
	</g>
	<path d="M2277.39,852.15l-55.6-93.88v93.88h-76.46V549.99h76.46v167.13l52.89-86.97h85.86l-69.18,105.81l76.18,116.19H2277.39z"/>
</g>
<g>
	<path d="M1200.27,938.08c0,14.24-10.46,24.44-25.19,24.44h-19.75v-48.79h19.75C1189.85,913.73,1200.27,923.83,1200.27,938.08z    M1186.49,938.08c0-7.24-4.82-12.04-12.04-12.04h-5.61v24.17h5.61C1181.67,950.21,1186.49,945.28,1186.49,938.08z"/>
	<path d="M1221.2,913.73h13.62v48.79h-13.62V913.73z"/>
	<path d="M1307.39,936.44c0,15.97-10.42,27.31-25.7,27.31c-14.95,0-25.99-10.74-25.99-25.59s10.84-25.67,25.87-25.67   c12.79,0,23.25,8,25.31,19.34h-14.09c-1.77-4.11-6.13-6.75-11.11-6.75c-7.31,0-12.23,5.28-12.23,13.08c0,7.72,4.85,13,12.23,13   c5.13,0,9.53-2.48,11.06-6.25h-12.12v-8.47L1307.39,936.44z"/>
	<path d="M1328.11,913.73h13.62v48.79h-13.62V913.73z"/>
	<path d="M1401.71,925.83h-13.25v36.69h-13.5v-36.69h-13.25v-12.1h40.01V925.83z"/>
	<path d="M1446.37,954.6h-17.29l-2.7,7.92h-14.4l19.17-48.79h13.14l19.59,48.79h-14.8L1446.37,954.6z M1437.7,928.96l-5.35,15.12   h10.74L1437.7,928.96z"/>
	<path d="M1513.48,950.21v12.31h-30.98v-48.79h13.62v36.48H1513.48z"/>
	<path d="M1588.63,954.6h-17.29l-2.7,7.92h-14.4l19.17-48.79h13.14l19.59,48.79h-14.8L1588.63,954.6z M1579.95,928.96l-5.35,15.12   h10.74L1579.95,928.96z"/>
	<path d="M1671.64,936.44c0,15.97-10.42,27.31-25.7,27.31c-14.95,0-25.99-10.74-25.99-25.59s10.84-25.67,25.87-25.67   c12.79,0,23.25,8,25.31,19.34h-14.09c-1.77-4.11-6.13-6.75-11.11-6.75c-7.31,0-12.23,5.28-12.23,13.08c0,7.72,4.85,13,12.23,13   c5.13,0,9.53-2.48,11.06-6.25h-12.12v-8.47L1671.64,936.44z"/>
	<path d="M1724.17,950.86v11.66h-31.81v-48.79h31.22v11.62h-17.84v7.18h16.03v11.03h-16.03v7.3H1724.17z"/>
	<path d="M1789.35,913.73v48.79h-11.12l-19.38-26.48v26.48h-13.03v-48.79h11.77l18.74,25.6v-25.6H1789.35z"/>
	<path d="M1810.19,938.17c0-14.68,11.09-25.67,25.94-25.67c12.79,0,22.69,8.44,24.67,20.81h-13.62c-1.67-5-5.89-8.25-11.03-8.25   c-6.91,0-11.98,5.55-11.98,13.11c0,7.53,5.07,13,11.98,13c5.41,0,9.67-3.53,11.04-8.95h13.75c-1.85,12.83-11.82,21.54-24.81,21.54   C1821.28,963.75,1810.19,952.76,1810.19,938.17z"/>
	<path d="M1904.37,943.44v19.08h-13.69V943.4l-16.93-29.67h14.91l8.92,17.63l8.92-17.63h14.91L1904.37,943.44z"/>
</g>
</svg>